<svg xmlns="http://www.w3.org/2000/svg" viewBox="0 0 64 64" fill="none">
  <!-- Primary brand color -->
  <defs>
    <style>
      .stroke{stroke:#7C3AED;stroke-width:4;stroke-linecap:round;stroke-linejoin:round}
      .dot{fill:#7C3AED}
    </style>
  </defs>

  <!-- Chat bubble outline (circular bubble with tail) -->
  <path class="stroke" d="M32 6c13.255 0 24 9.58 24 21.4 0 11.8-10.745 21.4-24 21.4-2.87 0-5.624-.44-8.168-1.26a2 2 0 0 0-1.452.105L14 51l1.63-7.03a2 2 0 0 0-.64-2.02C11.999 38.59 8 33.19 8 27.4 8 15.58 18.745 6 32 6z"/>

  <!-- Globe circle inside the bubble -->
  <circle class="stroke" cx="32" cy="27" r="14"/>

  <!-- Latitudinal arc -->
  <path class="stroke" d="M18.5 27c3.8 4 13.2 4 27 0"/>

  <!-- Longitudinal arcs -->
  <path class="stroke" d="M32 13c-4.5 6-4.5 22 0 28"/>
  <path class="stroke" d="M24.5 17.5c6.5 3.5 8.5 15.5 0 19"/>
  <path class="stroke" d="M39.5 17.5c-6.5 3.5-8.5 15.5 0 19"/>

  <!-- Nodes on intersections -->
  <circle class="dot" cx="25.5" cy="24" r="2.2"/>
  <circle class="dot" cx="38.5" cy="24.5" r="2.2"/>
  <circle class="dot" cx="28.5" cy="33.5" r="2.2"/>
  <circle class="dot" cx="35.5" cy="32.5" r="2.2"/>
</svg>
